<svg width="30" height="30" viewBox="0 0 30 30" fill="none" xmlns="http://www.w3.org/2000/svg">
<path d="M15 0C6.71563 0 0 6.71563 0 15C0 23.2844 6.71563 30 15 30C23.2844 30 30 23.2844 30 15C30 6.71563 23.2844 0 15 0ZM21.1016 12.2875C21.1078 12.4156 21.1094 12.5438 21.1094 12.6688C21.1094 16.575 18.1391 21.0766 12.7047 21.0766C11.0989 21.0792 9.52651 20.618 8.17656 19.7484C8.40625 19.7766 8.64219 19.7875 8.88125 19.7875C10.2656 19.7875 11.5391 19.3172 12.55 18.5234C11.9339 18.5113 11.337 18.3073 10.8424 17.9399C10.3477 17.5724 9.98008 17.0598 9.79062 16.4734C10.2331 16.5576 10.6888 16.5399 11.1234 16.4219C10.4548 16.2867 9.85343 15.9243 9.42142 15.3963C8.9894 14.8684 8.75329 14.2072 8.75312 13.525V13.4891C9.15156 13.7094 9.60781 13.8438 10.0922 13.8594C9.46531 13.4421 9.02154 12.801 8.85163 12.0674C8.68172 11.3337 8.79852 10.5629 9.17812 9.9125C9.92024 10.825 10.8457 11.5715 11.8946 12.1036C12.9436 12.6357 14.0925 12.9417 15.2672 13.0016C15.1178 12.3677 15.1821 11.7022 15.45 11.1086C15.7179 10.515 16.1744 10.0265 16.7485 9.71916C17.3227 9.41178 17.9823 9.30269 18.6248 9.40886C19.2674 9.51503 19.8568 9.83051 20.3016 10.3062C20.9628 10.1754 21.5968 9.9329 22.1766 9.58906C21.9562 10.2736 21.4948 10.855 20.8781 11.225C21.4638 11.1545 22.0357 10.997 22.575 10.7578C22.1789 11.3514 21.6799 11.8694 21.1016 12.2875V12.2875Z" fill="#00979D"/>
</svg>
